<svg id="Layer_1" data-name="Layer 1" xmlns="http://www.w3.org/2000/svg" viewBox="0 0 559.91 491.56"><defs><style>.cls-1{fill:#154995;}.cls-2{fill:#3773ca;}.cls-3{fill:#3c823a;}.cls-4{fill:#ffba23;}.cls-5,.cls-6{fill:#fff;}.cls-6{font-size:54.18px;font-family:Lato-Bold, Lato;font-weight:700;letter-spacing:0.02em;}.cls-7{fill:#ef5621;}</style></defs><rect class="cls-1" y="115.49" width="559.82" height="259.69" rx="27.56"/><rect class="cls-2" width="233.34" height="92.25" rx="16.53"/><rect class="cls-3" x="258.9" y="27.5" width="73.23" height="64.74" rx="12.25"/><rect class="cls-2" x="310.52" y="398.43" width="73.23" height="64.74" rx="12.25"/><rect class="cls-4" x="146.74" y="398.43" width="137.4" height="64.74" rx="12.25"/><path class="cls-5" d="M95.4,194.16c0-18.76,10.54-23.19,28.24-23.19H153.2c22.3,0,25.4,8.06,25.4,20.54v2H159.31c0-6.37-3.63-7.17-9.92-7.17H128.06c-9.91,0-12.48,2.39-12.48,13.37v8c0,11,2.57,13.37,12.48,13.37h21c5.13,0,10.27-.8,10.27-7v-1.86H134.88V198.94H179v18.23c0,18.41-9.56,19.3-31.68,19.3H123.64c-17.7,0-28.24-4.43-28.24-23.19Z"/><polygon class="cls-5" points="183.82 171.68 253.91 171.68 253.91 186.55 203.47 186.55 203.47 196.82 251.26 196.82 251.26 210.09 203.47 210.09 203.47 220.36 255.07 220.36 255.07 235.76 183.82 235.76 183.82 171.68"/><rect class="cls-5" x="261.01" y="171.68" width="19.65" height="64.07"/><path class="cls-5" d="M286.6,194.16c0-18.76,10.53-23.19,28.23-23.19h23.1c28,0,31.6,6,31.42,24.16H349.7v-1.76c0-4.61-3.36-5.94-9.2-5.94H319.08c-10.35,0-12.3,4.87-12.3,12.84v6.9c0,9.29,2,12.83,11.24,12.83h21c8.86,0,11.51-.88,11.51-8.84h19.65v6c0,10.8-3.9,19.3-23.63,19.3H314.83c-17.7,0-28.23-4.43-28.23-23.19Z"/><path class="cls-5" d="M393.78,207.17c0,9.29,2,12.83,11.24,12.83h25.13c9.3,0,11.25-3.54,11.25-12.83v-6.9c0-8-1.95-12.83-12.31-12.83h-23c-10.35,0-12.3,4.86-12.3,12.83Zm-20.18-13c0-18.76,10.53-23.19,28.23-23.19h31.51c17.7,0,28.23,4.43,28.23,23.19v19.12c0,18.76-10.53,23.19-28.23,23.19H401.83c-17.7,0-28.23-4.43-28.23-23.19Z"/><path class="cls-5" d="M469,228.38c1,0,2.53.17,2.53-1.28,0-1.09-1-1.23-1.84-1.23h-2v2.51Zm3.31,4h-1l-2-3.27h-1.59v3.27h-.87v-7.09h3.09a3.29,3.29,0,0,1,1.72.35,1.75,1.75,0,0,1,.8,1.53c0,1.39-1,1.91-2.24,1.94Zm2.41-3.55a5.57,5.57,0,1,0-5.56,5.6,5.56,5.56,0,0,0,5.56-5.6m-11.92,0a6.35,6.35,0,1,1,6.36,6.36,6.34,6.34,0,0,1-6.36-6.36"/><text class="cls-6" transform="translate(183.82 323.37)">LIVING</text><rect class="cls-5" x="77.05" y="258.2" width="404.38" height="2.13" transform="translate(558.48 518.54) rotate(180)"/><rect class="cls-7" x="410.12" y="399.31" width="149.79" height="92.25" rx="16.53"/></svg>